# xmcd
#
# Track frame offsets:
#	150
#	42345
#	77530
#	115025
#	150820
#	200555
#	248115
#	291120
#	347510
#
# Disc length: 4710 seconds
#
# Revision: 1
# Processed by: cddbd v1.5.2PL0 Copyright (c) Steve Scherf et al.
# Submitted via: audiograbber 1.83.01
#
DISCID=6c126409
DTITLE=Various Artist - Charlie Apple Labor Day Show (WKPA)
DYEAR=1900
DGENRE=
TTITLE0=Introduction by MOM To Charlie Apple And Acappella
TTITLE1=Ca Wine Time
TTITLE2=Intro To CA Instrumentals and More
TTITLE3=Price To MOM And Six Packs
TTITLE4=A Special Of Pittsburgh Talent
TTITLE5=Picnic And Music With Charlie Apple
TTITLE6=Wine Time Part 2
TTITLE7=Gold Old Acappella Part 2
TTITLE8=The Closing
EXTD=
EXTT0=
EXTT1=
EXTT2=
EXTT3=
EXTT4=
EXTT5=
EXTT6=
EXTT7=
EXTT8=
PLAYORDER=
